<svg width="500" height="100" viewBox="0 0 500 100" fill="none" xmlns="http://www.w3.org/2000/svg">
<path d="M184.808 0V100H186.424V0H184.808Z" fill="white"/>
<path d="M31.2532 37.3477C35.7453 29.3667 44.3609 23.9428 54.2279 23.9428C64.095 23.9428 72.6323 29.3114 77.1468 37.237H82.7787C77.8619 26.4555 66.911 18.9505 54.2168 18.9505C41.5225 18.9505 30.4933 26.5219 25.5989 37.3588H31.2309L31.2532 37.3477Z" fill="white"/>
<path d="M67.3577 76.2562C64.9664 75.9573 63.2231 75.4814 61.8934 74.784C59.4797 75.592 56.9096 76.0459 54.2277 76.0459C46.0591 76.0459 38.7398 72.3266 33.9125 66.5152H27.7106C33.2644 75.2268 43.0755 81.0381 54.2277 81.0381C59.8149 81.0381 65.1451 79.2671 69.7937 76.3115C68.9556 76.3669 68.1399 76.3558 67.3577 76.2673V76.2562Z" fill="white"/>
<path d="M140.259 63.0285C141.097 63.0285 141.767 62.3643 141.767 61.5341C141.767 60.7039 141.097 60.0398 140.259 60.0398C139.421 60.0398 138.75 60.7039 138.75 61.5341C138.75 62.3643 139.421 63.0285 140.259 63.0285Z" fill="white"/>
<path fill-rule="evenodd" clip-rule="evenodd" d="M144.702 54.2948C144.911 54.2956 145.077 54.34 145.21 54.4387C145.344 54.5383 145.411 54.6712 145.411 54.8261V55.5789C145.624 55.2246 145.925 54.9036 146.35 54.6158C146.763 54.328 147.277 54.1841 147.87 54.1841C148.328 54.1841 148.752 54.2727 149.155 54.4609C149.557 54.649 149.903 54.9036 150.205 55.2246C150.507 55.5457 150.742 55.9331 150.909 56.3537C151.077 56.7854 151.166 57.2393 151.166 57.7152V59.597C151.166 60.0619 151.077 60.5158 150.898 60.9475C150.719 61.3792 150.484 61.7555 150.194 62.0876C149.903 62.4197 149.557 62.6853 149.166 62.8846C148.775 63.0838 148.361 63.1835 147.937 63.1835C147.378 63.1835 146.875 63.0396 146.428 62.7518C145.992 62.464 145.668 62.1319 145.478 61.7445V66.7035C145.478 66.8363 145.4 66.9692 145.255 67.0798C145.098 67.2016 144.92 67.257 144.718 67.257C144.495 67.257 144.316 67.2016 144.182 67.0798C144.037 66.9581 143.97 66.8363 143.97 66.7035V54.8261C143.97 54.6712 144.037 54.5383 144.182 54.4387C144.326 54.34 144.492 54.2956 144.702 54.2948ZM149.646 57.7263C149.646 57.4606 149.591 57.195 149.479 56.9293C149.367 56.6747 149.211 56.4423 149.021 56.2319C148.831 56.0327 148.596 55.8666 148.339 55.7449C148.082 55.6231 147.803 55.5567 147.512 55.5567C147.255 55.5567 147.009 55.601 146.775 55.7006C146.54 55.8002 146.316 55.9441 146.126 56.1212C145.925 56.3094 145.78 56.5308 145.657 56.8075C145.545 57.0732 145.478 57.3832 145.478 57.7152V60.0951C145.478 60.2169 145.534 60.3719 145.635 60.56C145.735 60.7482 145.881 60.9364 146.071 61.1246C146.249 61.3127 146.473 61.4677 146.73 61.5895C146.987 61.7223 147.266 61.7777 147.557 61.7777C147.847 61.7777 148.104 61.7112 148.35 61.5895C148.596 61.4677 148.819 61.3017 149.021 61.0914C149.211 60.881 149.367 60.6486 149.479 60.394C149.591 60.1394 149.646 59.8627 149.646 59.5859V57.7263Z" fill="white"/>
<path d="M144.702 54.2948L144.696 54.2948H144.707L144.702 54.2948Z" fill="white"/>
<path fill-rule="evenodd" clip-rule="evenodd" d="M157.658 54.4276C157.223 54.2616 156.787 54.1841 156.318 54.1841C155.815 54.1841 155.345 54.2727 154.898 54.4609C154.451 54.638 154.071 54.8926 153.736 55.2136C153.401 55.5346 153.144 55.9109 152.954 56.3316C152.764 56.7633 152.675 57.206 152.675 57.671V59.6081C152.675 60.1394 152.775 60.6375 152.976 61.0692C153.178 61.512 153.457 61.8883 153.814 62.1983C154.172 62.5193 154.608 62.7518 155.1 62.9289C155.591 63.0949 156.139 63.1835 156.742 63.1835C157.178 63.1835 157.58 63.1281 157.938 63.0396C158.295 62.9399 158.608 62.8292 158.854 62.6964C159.111 62.5636 159.301 62.4197 159.435 62.2758C159.569 62.1208 159.636 61.988 159.636 61.8662C159.636 61.7334 159.569 61.5784 159.458 61.4124C159.346 61.2463 159.189 61.1578 159.011 61.1578C158.91 61.1578 158.787 61.191 158.675 61.2685C158.622 61.2975 158.566 61.3307 158.506 61.3663C158.429 61.4123 158.345 61.4621 158.251 61.512C158.094 61.6006 157.893 61.678 157.658 61.7555C157.424 61.833 157.144 61.8662 156.798 61.8662C156.027 61.8662 155.401 61.667 154.921 61.2685C154.44 60.87 154.194 60.3276 154.194 59.6413V59.0878H158.206C158.407 59.0878 158.619 59.0878 158.809 59.0657C159.011 59.0435 159.178 58.9771 159.335 58.8775C159.491 58.7668 159.614 58.6118 159.703 58.4126C159.793 58.2133 159.837 57.9255 159.837 57.5602C159.837 57.0732 159.748 56.6194 159.558 56.1987C159.368 55.7892 159.111 55.4239 158.787 55.125C158.463 54.8261 158.083 54.5937 157.658 54.4276ZM158.217 57.9698C158.117 58.0473 157.893 58.0805 157.58 58.0805L157.569 58.0694H154.172V57.4053C154.172 57.1175 154.228 56.8518 154.34 56.6083C154.451 56.3648 154.597 56.1545 154.798 55.9774C154.999 55.8002 155.222 55.6563 155.468 55.5567C155.714 55.4571 155.971 55.4017 156.284 55.4017C156.597 55.4017 156.876 55.4571 157.133 55.5789C157.39 55.7006 157.614 55.8556 157.793 56.0438C157.983 56.2319 158.128 56.4533 158.228 56.7079C158.329 56.9625 158.385 57.2282 158.385 57.4938C158.385 57.7374 158.329 57.8923 158.217 57.9698Z" fill="white"/>
<path fill-rule="evenodd" clip-rule="evenodd" d="M26.2012 40.7682C26.9946 40.7682 27.6315 40.9343 28.0897 41.2774C28.5478 41.6206 28.7266 42.0633 28.6372 42.6168L28.3914 44.0005C29.073 43.1039 30.0117 42.2958 31.2185 41.5763C32.4254 40.8568 33.7551 40.4915 35.2302 40.4915C36.3588 40.4915 37.398 40.735 38.3143 41.2331C39.2418 41.7313 39.9905 42.4065 40.5716 43.2699C41.1526 44.1333 41.5549 45.1295 41.7896 46.2475C42.0131 47.3766 42.0131 48.5832 41.7896 49.8783L41.1191 53.675C40.8956 54.9037 40.471 56.0992 39.8229 57.2393C39.1747 58.3795 38.4037 59.3868 37.5097 60.2723C36.6158 61.1468 35.6436 61.8552 34.582 62.3755C33.5205 62.8958 32.4589 63.1614 31.3861 63.1614C30.0117 63.1614 28.8272 62.7961 27.855 62.0545C26.8828 61.3128 26.2682 60.4716 26.0112 59.5085L23.9551 71.076C23.8657 71.5741 23.4858 72.0058 22.8265 72.3932C22.156 72.7806 21.4185 72.9688 20.5804 72.9688C19.7423 72.9688 19.0607 72.7806 18.5914 72.3932C18.122 72.0058 17.9321 71.563 18.0215 71.076L23.0835 42.6279C23.1841 42.0744 23.5305 41.6316 24.1227 41.2885C24.715 40.9453 25.419 40.7793 26.2124 40.7793L26.2012 40.7682ZM35.8447 49.8783C35.9341 49.358 35.923 48.8488 35.8 48.3507C35.6771 47.8526 35.4536 47.4098 35.1408 47.0113C34.8279 46.6128 34.4368 46.2918 33.9786 46.0593C33.5093 45.8269 32.9953 45.7162 32.403 45.7162C31.9113 45.7162 31.4085 45.8048 30.9056 45.9929C30.3916 46.1811 29.9223 46.4578 29.4976 46.8231C29.0618 47.1884 28.6819 47.6312 28.369 48.1404C28.045 48.6496 27.8326 49.2252 27.7209 49.8783L26.894 54.5052C26.8493 54.7487 26.894 55.0698 27.0281 55.4572C27.1622 55.8446 27.3745 56.221 27.6762 56.5863C27.9779 56.9515 28.3467 57.2725 28.7937 57.5382C29.2406 57.8039 29.7547 57.9367 30.3357 57.9367C30.8833 57.9367 31.4308 57.8149 31.9672 57.5714C32.5036 57.3279 32.9841 56.9958 33.4311 56.5973C33.8669 56.1988 34.2468 55.745 34.5709 55.2358C34.8949 54.7266 35.0961 54.2063 35.1966 53.6861L35.8671 49.8893L35.8447 49.8783Z" fill="white"/>
<path fill-rule="evenodd" clip-rule="evenodd" d="M58.083 41.2553C56.9209 40.7461 55.4459 40.4915 53.6691 40.4915V40.5026C52.8422 40.5026 51.9818 40.5911 51.099 40.7572C50.205 40.9343 49.3781 41.1667 48.6071 41.4545C47.836 41.7423 47.1879 42.0965 46.6515 42.5172C46.1152 42.9378 45.8023 43.3695 45.7241 43.8344C45.6123 44.5207 45.657 45.1849 45.8805 45.8269C46.104 46.48 46.551 46.801 47.2214 46.801C47.5008 46.801 47.7802 46.7235 48.0483 46.5685C48.3165 46.4136 48.6518 46.2475 49.054 46.0815C49.4451 45.9155 49.9368 45.7494 50.5179 45.5944C51.099 45.4395 51.8253 45.362 52.7193 45.362C53.4903 45.362 54.1049 45.4948 54.5631 45.7605C55.0212 46.0261 55.3788 46.3582 55.6246 46.7567C55.8705 47.1552 56.0269 47.6091 56.0716 48.1182C56.1275 48.6274 56.1051 49.1255 56.0157 49.6237L55.904 50.2214H54.0155C52.4176 50.2214 50.9425 50.3321 49.5904 50.5424C48.2271 50.7527 47.0426 51.118 46.0146 51.6272C44.9865 52.1364 44.1373 52.8338 43.4556 53.7082C42.774 54.5938 42.3158 55.6896 42.0812 57.018C41.9024 58.0695 41.8912 58.9772 42.0812 59.7521C42.2711 60.5159 42.584 61.1579 43.031 61.6671C43.478 62.1762 44.0367 62.5526 44.7183 62.7961C45.4 63.0397 46.1487 63.1614 46.9756 63.1614C48.5735 63.1614 49.9927 62.7961 51.2442 62.0545C52.4958 61.3128 53.6244 60.4605 54.6189 59.5085L54.3843 60.8479C54.2949 61.3682 54.4737 61.822 54.9095 62.1873C55.3453 62.5526 55.9487 62.7408 56.7197 62.7408C57.5466 62.7408 58.273 62.5526 58.8876 62.1873C59.5022 61.822 59.8598 61.3682 59.9492 60.8479L61.9606 49.513C62.1617 48.3396 62.1841 47.2216 62.0276 46.1368C61.86 45.0631 61.4577 44.1001 60.8096 43.2699C60.1615 42.4397 59.2452 41.7645 58.083 41.2553ZM55.3434 53.2987H54.6525C53.8814 53.2987 53.1327 53.3319 52.4064 53.3872C51.68 53.4536 51.0208 53.5754 50.4285 53.7857C49.8363 53.985 49.3446 54.2838 48.9423 54.6602C48.54 55.0476 48.2718 55.5568 48.1601 56.2099C48.0036 57.0733 48.1266 57.7043 48.5177 58.1027C48.9088 58.5012 49.4563 58.7005 50.1603 58.7005C50.6185 58.7005 51.1213 58.5787 51.68 58.3352C52.2276 58.0917 52.7528 57.7596 53.2333 57.339C53.725 56.9183 54.1384 56.4423 54.496 55.8999C54.8536 55.3576 55.0771 54.8152 55.1777 54.2617L55.3434 53.2987Z" fill="white"/>
<path d="M55.0647 38.9971C54.9306 39.0636 54.8189 39.1078 54.7183 39.141C54.6177 39.1743 54.506 39.1853 54.3831 39.1853C53.8579 39.1853 53.4668 38.9418 53.2097 38.4437C52.9416 37.9456 52.8633 37.4474 52.9527 36.9161C53.0757 36.2409 53.4221 35.7649 53.992 35.4771L58.9534 33.3297C59.0763 33.2965 59.1881 33.2743 59.2887 33.2632C59.3781 33.2522 59.4786 33.2411 59.568 33.2411C60.0932 33.2411 60.4843 33.4846 60.7414 33.9827C61.0095 34.4809 61.0878 34.9901 60.9984 35.5103C60.9537 35.787 60.8419 36.0527 60.6743 36.2962C60.5067 36.5398 60.2608 36.739 59.9256 36.894L55.0647 38.9971Z" fill="white"/>
<path fill-rule="evenodd" clip-rule="evenodd" d="M102.3 41.2553C101.138 40.7461 99.6625 40.4915 97.8858 40.4915L97.8969 40.5026C97.07 40.5026 96.2096 40.5911 95.3268 40.7572C94.4328 40.9343 93.6059 41.1667 92.8349 41.4545C92.0639 41.7423 91.4157 42.0965 90.8794 42.5172C90.343 42.9378 90.0301 43.3695 89.9519 43.8344C89.8401 44.5207 89.8848 45.1849 90.1083 45.8269C90.3318 46.48 90.7788 46.801 91.4493 46.801C91.7286 46.801 92.008 46.7235 92.2762 46.5685C92.5444 46.4136 92.8796 46.2475 93.2819 46.0815C93.673 45.9155 94.1647 45.7494 94.7457 45.5944C95.3268 45.4395 96.0531 45.362 96.9471 45.362C97.707 45.362 98.3216 45.4948 98.7797 45.7605C99.2379 46.0261 99.5955 46.3582 99.8413 46.7567C100.087 47.1552 100.244 47.6091 100.288 48.1182C100.344 48.6274 100.322 49.1255 100.232 49.6237L100.121 50.2214H98.2322C96.6342 50.2214 95.1592 50.3321 93.8071 50.5424C92.4438 50.7527 91.2593 51.118 90.2312 51.6272C89.2032 52.1364 88.3539 52.8338 87.6723 53.7082C86.9906 54.5938 86.5325 55.6896 86.2978 57.018C86.119 58.0695 86.1079 58.9772 86.2978 59.7521C86.4878 60.5159 86.8007 61.1579 87.2477 61.6671C87.6946 62.1762 88.2534 62.5526 88.935 62.7961C89.6166 63.0397 90.3653 63.1614 91.1923 63.1614C92.7902 63.1614 94.2094 62.7961 95.4609 62.0545C96.7124 61.3128 97.8411 60.4605 98.8356 59.5085L98.6009 60.8479C98.5115 61.3682 98.6903 61.822 99.1261 62.1873C99.5619 62.5526 100.165 62.7408 100.936 62.7408C101.763 62.7408 102.49 62.5526 103.104 62.1873C103.719 61.822 104.076 61.3682 104.166 60.8479L106.177 49.513C106.378 48.3396 106.401 47.2216 106.244 46.1368C106.077 45.0631 105.674 44.1001 105.026 43.2699C104.378 42.4397 103.462 41.7645 102.3 41.2553ZM99.56 53.2987H98.8691C98.0981 53.2987 97.3494 53.3319 96.623 53.3872C95.8967 53.4536 95.2374 53.5754 94.6452 53.7857C94.0529 53.985 93.5612 54.2838 93.159 54.6602C92.7567 55.0476 92.4885 55.5568 92.3767 56.2099C92.2203 57.0733 92.3432 57.7043 92.7343 58.1027C93.1254 58.5012 93.673 58.7005 94.377 58.7005C94.8351 58.7005 95.338 58.5787 95.8967 58.3352C96.4442 58.0917 96.9694 57.7596 97.45 57.339C97.9416 56.9183 98.3551 56.4423 98.7127 55.8999C99.0703 55.3576 99.2937 54.8152 99.3943 54.2617L99.56 53.2987Z" fill="white"/>
<path d="M116.961 27.9611C117.754 27.9611 118.425 28.1271 118.961 28.4703C119.497 28.8134 119.721 29.2562 119.62 29.8096L114.1 60.8479C114.022 61.3129 113.642 61.7446 112.971 62.1431C112.301 62.5415 111.575 62.7408 110.77 62.7408C109.876 62.7408 109.206 62.5415 108.736 62.1431C108.267 61.7446 108.077 61.3129 108.166 60.8479L113.687 29.8096C113.787 29.2562 114.134 28.8134 114.726 28.4703C115.318 28.1271 116.067 27.9611 116.95 27.9611H116.961Z" fill="white"/>
<path fill-rule="evenodd" clip-rule="evenodd" d="M134.728 41.2332C133.599 40.7351 132.381 40.4915 131.062 40.4915V40.4805C129.677 40.4805 128.336 40.7351 127.04 41.2442C125.732 41.7534 124.559 42.4397 123.497 43.3031C122.447 44.1665 121.553 45.1739 120.827 46.314C120.1 47.4541 119.631 48.6496 119.407 49.8783L118.737 53.6751C118.513 54.937 118.569 56.1435 118.905 57.2837C119.24 58.4349 119.787 59.4311 120.536 60.2945C121.285 61.1579 122.223 61.8553 123.341 62.3755C124.458 62.8958 125.721 63.1615 127.04 63.1615C128.358 63.1615 129.666 62.8958 130.973 62.3755C132.269 61.8553 133.465 61.1468 134.538 60.2724C135.622 59.3868 136.527 58.3795 137.264 57.2394C138.002 56.0992 138.482 54.9038 138.706 53.6751L139.376 49.8783C139.611 48.5832 139.555 47.3766 139.22 46.2476C138.885 45.1296 138.337 44.1333 137.566 43.2699C136.795 42.4065 135.845 41.7313 134.728 41.2332ZM133.398 48.3507C133.521 48.8489 133.532 49.358 133.443 49.8783H133.454L132.783 53.6751C132.683 54.2285 132.482 54.7599 132.18 55.269C131.867 55.7782 131.498 56.221 131.062 56.6084C130.627 56.9959 130.146 57.3169 129.61 57.5604C129.073 57.8039 128.526 57.9257 127.978 57.9257C127.431 57.9257 126.928 57.8039 126.481 57.5604C126.034 57.3058 125.665 56.9959 125.363 56.6084C125.062 56.221 124.849 55.7782 124.726 55.269C124.604 54.7599 124.592 54.2285 124.693 53.6751L125.363 49.8783C125.453 49.358 125.654 48.8489 125.956 48.3507C126.257 47.8637 126.637 47.4098 127.073 47.0113C127.509 46.6018 127.989 46.2918 128.526 46.0594C129.051 45.8269 129.599 45.7162 130.146 45.7162C130.694 45.7162 131.197 45.8269 131.643 46.0594C132.09 46.2918 132.459 46.6129 132.761 47.0113C133.063 47.4098 133.275 47.8526 133.398 48.3507Z" fill="white"/>
<path fill-rule="evenodd" clip-rule="evenodd" d="M85.8847 49.1145C85.8735 48.5721 85.8176 48.0408 85.717 47.5316C85.46 46.2033 84.9683 45.0632 84.2308 44.1001C83.4933 43.1482 82.5435 42.3955 81.3702 41.8752C80.1968 41.3439 78.8559 41.0893 77.325 41.0893C75.7941 41.0893 74.3414 41.3549 72.9781 41.8752C71.6148 42.4065 70.3745 43.1482 69.2794 44.1001C68.1843 45.0632 67.2568 46.2033 66.5081 47.5316C65.7594 48.8599 65.223 50.3211 64.9213 51.9261L64.8431 52.3246C64.5414 53.9297 64.519 55.3908 64.7761 56.7191C65.0331 58.0474 65.5247 59.1876 66.2623 60.1506C66.9998 61.1136 67.9496 61.8553 69.1118 62.3755C70.2851 62.9069 71.626 63.1614 73.1569 63.1614C74.6878 63.1614 76.1405 62.8958 77.5038 62.3755C77.5653 62.3534 77.624 62.3285 77.6826 62.3036C77.7413 62.2787 77.8 62.2537 77.8614 62.2316C76.9116 64.5451 74.5761 68.3197 69.9834 68.8068C68.4189 68.9728 66.7651 68.6629 65.927 67.7552C65.5248 67.3124 65.1448 66.6261 65.0219 65.8956C64.8319 64.6447 63.9156 63.7149 62.6417 63.7149H62.53C61.0773 63.7149 59.9152 64.9215 59.9934 66.3716C60.0828 68.1205 60.6192 69.6148 61.6025 70.8435C63.1781 72.8249 65.6142 73.8101 68.9218 73.8101C72.2294 73.8101 75.4142 72.5925 77.6714 70.434C83.6609 64.7112 85.2812 55.7007 85.717 51.4612C85.84 50.6421 85.8958 49.8672 85.8735 49.1256L85.8847 49.1145ZM76.3081 57.9921C75.6712 58.291 74.9895 58.4459 74.2744 58.4459C73.5592 58.4459 72.9223 58.291 72.3747 57.9921C71.8272 57.6932 71.3802 57.2615 71.0338 56.7191C70.6874 56.1657 70.4639 55.5126 70.341 54.7488C70.218 53.985 70.2292 53.1437 70.3745 52.225L70.408 52.0036C70.5533 51.0849 70.7991 50.2436 71.1455 49.4798C71.5031 48.716 71.9277 48.0629 72.4417 47.5095C72.9558 46.956 73.5257 46.5354 74.1738 46.2365C74.8107 45.9376 75.4924 45.7827 76.2076 45.7827C76.9227 45.7827 77.5597 45.9376 78.1072 46.2365C78.6548 46.5354 79.1017 46.9671 79.4482 47.5095C79.7946 48.0629 80.018 48.716 80.141 49.4798C80.2639 50.2436 80.2527 51.0849 80.1074 52.0036L80.0739 52.225C79.9286 53.1437 79.6828 53.985 79.3364 54.7488C78.9788 55.5126 78.5542 56.1657 78.0402 56.7191C77.5261 57.2726 76.9562 57.6932 76.3081 57.9921Z" fill="white"/>
<path d="M220.818 21.6957L220.87 21.6814C228.383 21.0804 234.479 22.3438 237.669 25.6696C244.787 33.1082 234.674 48.0517 215.085 59.0435C213.185 60.1172 211.263 61.1024 209.33 62.0212C216.08 60.8478 223.388 58.6339 230.539 55.4017C240.228 51.0183 247.871 45.5722 252.52 40.2036C258.956 40.0154 264.141 41.3437 266.991 44.3214C274.109 51.7599 263.996 66.7035 244.407 77.6953C242.496 78.7579 240.574 79.7542 238.652 80.6618C245.401 79.4885 252.721 77.2746 259.861 74.0424C280.199 64.8549 291.496 50.9519 285.104 42.982C280.422 37.1484 267.561 36.119 253.022 39.5948C257.716 33.9162 259.001 28.3705 255.771 24.3413C250.793 18.1272 236.538 17.3693 220.87 21.6814L220.829 21.6846L220.818 21.6957Z" fill="white"/>
<path d="M301.846 44.6424H301.844V44.6534L301.846 44.6424Z" fill="white"/>
<path fill-rule="evenodd" clip-rule="evenodd" d="M309.633 44.6424H301.846L305.721 18.9505H308.984C314.84 18.9505 317.801 21.2419 317.801 25.1936C317.801 27.5624 316.628 29.4442 314.348 30.6065C317.723 31.9237 319.433 34.1819 319.433 37.3034C319.433 40.2036 317.835 42.6056 315.063 43.8454C313.432 44.5981 311.61 44.6424 309.633 44.6424ZM307.297 32.1341L305.856 41.875H308.862C313.532 41.875 315.846 40.4028 315.846 37.2481C315.846 34.0933 313.186 32.1341 308.135 32.1341H307.297ZM308.828 22.0389L307.722 29.2671L307.733 29.256C307.835 29.2636 307.936 29.2718 308.036 29.2799C308.374 29.3072 308.699 29.3335 309.018 29.3335C312.393 29.3335 314.259 27.7949 314.259 25.2711C314.259 23.1679 312.616 22.0389 309.431 22.0389H308.828Z" fill="white"/>
<path fill-rule="evenodd" clip-rule="evenodd" d="M334.741 44.6645L337.244 27.6953H333.255C328.964 27.6953 326.07 28.6362 323.678 31.7577C322.27 33.6063 321.477 35.8534 321.477 38.189C321.477 42.2182 324.058 44.9966 327.288 44.9966C329.076 44.9966 330.517 44.1664 331.813 42.5503L331.512 44.6535H334.741V44.6645ZM332.305 39.4287C331.165 41.3105 329.835 42.2846 328.316 42.2846C326.383 42.2846 325.008 40.5578 325.008 37.8458C325.008 33.6284 328.048 30.4294 332.718 30.4294C333.02 30.4294 333.288 30.4294 333.59 30.4626L332.294 39.4177L332.305 39.4287Z" fill="white"/>
<path d="M342.105 44.6645H338.786L341.368 27.6953H344.675L344.262 30.4072C346.352 28.3373 348.329 27.2857 350.341 27.2857C352.922 27.2857 354.408 28.9793 354.408 31.9569C354.408 32.6986 354.33 33.5731 354.185 34.5472L352.665 44.6645H349.357L350.922 33.717C351.034 32.8868 351.067 32.3222 351.067 32.0234C351.067 30.7061 350.386 30.0309 349.089 30.0309C347.536 30.0309 345.793 31.1489 343.927 33.4513L342.105 44.6645Z" fill="white"/>
<path d="M369.918 40.4478C368.253 41.6096 366.656 42.1739 364.98 42.1739C362.164 42.1739 360.454 40.3253 360.454 37.3145C360.454 33.252 363.684 30.1637 368.276 30.1637C369.036 30.1637 369.908 30.2744 370.858 30.4626L371.159 27.7174C370.02 27.4517 368.846 27.3078 367.706 27.3078C361.471 27.3078 357.001 31.6359 357.001 37.724C357.001 42.0521 359.962 44.9855 364.6 44.9855C366.265 44.9855 367.908 44.5759 369.617 43.7457L369.918 40.4478Z" fill="white"/>
<path fill-rule="evenodd" clip-rule="evenodd" d="M379.304 44.9855C375.315 44.9855 372.767 42.2071 372.767 37.4252C372.767 31.5584 376.745 27.3078 380.969 27.3078C385.193 27.3078 387.774 30.1969 387.774 34.9014C387.774 40.7681 384.132 44.9855 379.304 44.9855ZM384.299 34.5693C384.299 31.6359 383.081 30.0198 381.07 30.0198L381.081 30.0087C378.567 30.0087 376.254 33.3295 376.254 37.6908C376.254 40.6685 377.539 42.3621 379.438 42.3621C382.131 42.3621 384.299 39.3844 384.299 34.5693Z" fill="white"/>
<path fill-rule="evenodd" clip-rule="evenodd" d="M314.415 80.684L318.293 54.9479H314.985L313.767 63.2277H313.007C309.968 63.2277 307.543 63.8255 305.531 65.2977C302.637 67.3677 301.084 70.3785 301.084 73.5775C301.084 78.0495 304.347 80.994 310.046 80.994C311.074 80.994 312.516 80.8833 314.415 80.6951V80.684ZM311.487 78.0938C310.884 78.2377 310.269 78.282 309.7 78.282C306.582 78.282 304.492 76.212 304.492 73.1237C304.492 69.0945 307.565 66.0504 312.426 66.0504C312.56 66.0504 312.692 66.0587 312.823 66.067C312.954 66.0753 313.085 66.0836 313.22 66.0836L311.476 78.0827L311.487 78.0938Z" fill="white"/>
<path fill-rule="evenodd" clip-rule="evenodd" d="M326.405 78.2487C328.35 78.2487 330.205 77.3853 332.451 75.6917L331.914 79.1121C329.936 80.385 328.037 81.0271 326.104 81.0271C321.779 81.0271 318.74 77.6731 318.74 73.0129C318.74 67.3343 322.271 63.2719 327.02 63.2719C330.931 63.2719 333.132 65.6075 333.132 69.9356V71.8506H322.304L322.226 72.9797V73.3892C322.226 76.2562 324.126 78.2487 326.405 78.2487ZM327.098 65.9064C324.93 65.9064 323.6 67.0355 322.841 69.4818H330.059V69.0279C330.059 67.0687 328.886 65.9064 327.098 65.9064Z" fill="white"/>
<path d="M349.281 54.959L345.37 80.6619H348.744L352.655 54.959H349.281Z" fill="white"/>
<path d="M366.892 80.6397L366.89 80.6508L366.901 80.6397H366.892Z" fill="white"/>
<path fill-rule="evenodd" clip-rule="evenodd" d="M369.393 63.6816L366.892 80.6397H363.672L363.973 78.5366C362.677 80.1527 361.236 80.9829 359.448 80.9829C356.218 80.9829 353.637 78.2045 353.637 74.1753C353.637 71.8397 354.43 69.5815 355.838 67.744C358.23 64.6225 361.113 63.6816 365.404 63.6816H369.393ZM360.465 78.282C361.984 78.282 363.314 77.3079 364.454 75.4261L364.443 75.415L365.739 66.46C365.437 66.4268 365.169 66.4268 364.867 66.4268C360.196 66.4268 357.157 69.6258 357.157 73.8432C357.157 76.5552 358.531 78.282 360.465 78.282Z" fill="white"/>
<path d="M384.704 80.6508L387.442 61.6227L400.359 80.6508H402.214L406.047 54.959H402.594L399.868 74.0314L387.062 54.959H385.084L381.217 80.6508H384.704Z" fill="white"/>
<path d="M420.687 80.6397L420.685 80.6508L420.697 80.6397H420.687Z" fill="white"/>
<path fill-rule="evenodd" clip-rule="evenodd" d="M423.189 63.6816L420.687 80.6397H417.467L417.769 78.5366C416.473 80.1527 415.031 80.9829 413.243 80.9829C410.014 80.9829 407.432 78.2045 407.432 74.1753C407.432 71.8397 408.226 69.5815 409.634 67.744C412.025 64.6225 414.908 63.6816 419.199 63.6816H423.189ZM414.26 78.282C415.78 78.282 417.11 77.3079 418.249 75.4261L418.238 75.415L419.534 66.46C419.233 66.4268 418.965 66.4268 418.663 66.4268C413.992 66.4268 410.952 69.6258 410.952 73.8432C410.952 76.5552 412.327 78.282 414.26 78.282Z" fill="white"/>
<path d="M437.737 76.4445L437.725 76.4528L437.726 76.4445H437.737Z" fill="white"/>
<path d="M437.725 76.4528C436.054 77.6094 434.47 78.1713 432.798 78.1713C429.982 78.1713 428.284 76.3227 428.284 73.323C428.284 69.2605 431.513 66.1722 436.106 66.1722C436.866 66.1722 437.737 66.2829 438.687 66.4711L438.989 63.7259C437.849 63.4602 436.676 63.3163 435.536 63.3163C429.301 63.3163 424.82 67.6444 424.82 73.7325C424.82 78.0606 427.781 80.994 432.418 80.994C434.083 80.994 435.726 80.5844 437.425 79.7542L437.725 76.4528Z" fill="white"/>
<path d="M446.498 63.6927L443.995 80.6619H440.687L443.19 63.6927H446.498Z" fill="white"/>
<path d="M445.582 60.1948C444.565 60.1948 443.76 59.4421 443.76 58.4237C443.76 57.4385 444.587 56.6526 445.582 56.6526C446.576 56.6526 447.369 57.4496 447.369 58.4237C447.369 59.3978 446.598 60.1948 445.582 60.1948Z" fill="white"/>
<path d="M457.28 61.202L462.979 54.804H459.671L455.302 61.202H457.28Z" fill="white"/>
<path fill-rule="evenodd" clip-rule="evenodd" d="M448.899 73.4225C448.899 78.2045 451.447 80.9829 455.436 80.9829C460.264 80.9829 463.907 76.7655 463.907 70.8987C463.907 66.1943 461.325 63.3052 457.112 63.3052C452.9 63.3052 448.91 67.5558 448.91 73.4225H448.899ZM457.202 66.0172C459.213 66.0172 460.431 67.6333 460.431 70.5667C460.431 75.3818 458.263 78.3484 455.57 78.3484C453.671 78.3484 452.386 76.6548 452.386 73.6882C452.386 69.3269 454.699 66.0061 457.213 66.0061L457.202 66.0172Z" fill="white"/>
<path d="M469.237 80.6507H465.918L468.499 63.6815H471.807L471.393 66.3934C473.483 64.3235 475.461 63.2719 477.472 63.2719C480.054 63.2719 481.54 64.9655 481.54 67.9321C481.54 68.6848 481.462 69.5482 481.316 70.5334L479.797 80.6507H476.489L478.042 69.7032C478.154 68.873 478.199 68.3084 478.199 68.0096C478.199 66.6923 477.517 66.0171 476.221 66.0171C474.667 66.0171 472.924 67.1462 471.058 69.4375L469.237 80.6507Z" fill="white"/>
</svg>
